<svg id="图层_1" data-name="图层 1" xmlns="http://www.w3.org/2000/svg" viewBox="0 0 89 89"><defs><style>.cls-1{fill:none;stroke:#47c1df;stroke-linecap:round;stroke-linejoin:round;stroke-width:3px;}.cls-2{fill:#47c1df;}</style></defs><title>fen</title><circle class="cls-1" cx="44.5" cy="44.5" r="43"/><path class="cls-2" d="M3608.25,2028.65a1.19,1.19,0,0,0-.32,0c-0.76-6.7-7.89-8.59-12.31-8.64l-0.17,0h0l-24.53,0-0.4,0c-4.41,0-11.7,1.86-12.48,8.62l-0.23,0a1.28,1.28,0,0,0,0,2.56h0.05l0.16,0c0.59,6.86,5.81,10,11,10,5.61,0,12.85-6.34,12.85-13.07,0-.11,0-0.22,0-0.33a1.69,1.69,0,0,1,1.14-1.19,1.62,1.62,0,0,1,1.12,1.14c0,0.13,0,.26,0,0.38,0,6.73,7.24,13.07,12.85,13.07,5.19,0,10.43-3.1,11-10a1.33,1.33,0,0,0,.3,0h0.05a1.25,1.25,0,0,0,1.23-1.28,1.3,1.3,0,0,0-1.29-1.27h0Zm-39.23,9.93c-4.13,0-8.55-2.29-8.55-8.7s7.73-7.21,9.69-7.27h1.14c8.06,0.23,8.06,4.14,8.06,5.44,0,5.22-6,10.52-10.34,10.52h0Zm14-14.59a3.11,3.11,0,0,0-1.85.61,6.55,6.55,0,0,0-1.52-2h6.73a6.44,6.44,0,0,0-1.52,2,3.1,3.1,0,0,0-1.84-.6h0Zm13.95,14.59c-4.32,0-10.33-5.3-10.33-10.52,0-.12,0-0.26,0-0.41a1.18,1.18,0,0,0,0-.19c0.11-1.68,1.05-4.86,8.82-4.86,1,0,10,.2,10,7.27,0,6.42-4.41,8.7-8.55,8.7h0Z" transform="translate(-3538.54 -1984.09)"/></svg>