<svg id="图层_1" data-name="图层 1" xmlns="http://www.w3.org/2000/svg" viewBox="0 0 45.25 45.25"><defs><style>.cls-1{fill:#fff;}</style></defs><title>im-a</title><path id="_复合路径_" data-name="&lt;复合路径&gt;" class="cls-1" d="M-994.9,18.65a9.92,9.92,0,0,0,4.24-8.17,10,10,0,0,0-10-10,10,10,0,0,0-10,10,10,10,0,0,0,10,10h0.19a1.63,1.63,0,0,1,.93.15h0a7,7,0,0,0,4.08,1.24,7.73,7.73,0,0,0,2.1-.27,0.61,0.61,0,0,0,.42-0.46,0.61,0.61,0,0,0-.21-0.59A9.59,9.59,0,0,1-994.9,18.65Zm-10-11.86a1.37,1.37,0,0,1,1.37,1.37,1.37,1.37,0,0,1-1.37,1.37,1.37,1.37,0,0,1-1.37-1.37A1.37,1.37,0,0,1-1004.88,6.79Zm4.24,9a5.54,5.54,0,0,1-5.42-4.42h10.85A5.53,5.53,0,0,1-1000.64,15.77Zm4.24-6.24a1.37,1.37,0,0,1-1.37-1.37,1.37,1.37,0,0,1,1.37-1.37A1.37,1.37,0,0,1-995,8.16,1.37,1.37,0,0,1-996.4,9.53Z" transform="translate(1022.89 11.41)"/><path class="cls-1" d="M-1000.27,33.84a22.65,22.65,0,0,1-22.62-22.62,22.65,22.65,0,0,1,22.63-22.62,22.65,22.65,0,0,1,22.63,22.63A22.65,22.65,0,0,1-1000.27,33.84Zm0-44.25a21.65,21.65,0,0,0-21.62,21.63,21.65,21.65,0,0,0,21.63,21.63,21.65,21.65,0,0,0,21.63-21.62A21.65,21.65,0,0,0-1000.27-10.41Z" transform="translate(1022.89 11.41)"/></svg>