<svg id="图层_1" data-name="图层 1" xmlns="http://www.w3.org/2000/svg" viewBox="0 0 45.25 45.25"><defs><style>.cls-1{fill:#fff;}</style></defs><title>im-b</title><circle class="cls-1" cx="26.49" cy="19.57" r="1.37"/><path class="cls-1" d="M-1000.64,15.77a5.53,5.53,0,0,0,5.42-4.42h-10.85A5.54,5.54,0,0,0-1000.64,15.77Z" transform="translate(1022.89 11.41)"/><circle class="cls-1" cx="18.01" cy="19.57" r="1.37"/><path class="cls-1" d="M-1000.27-11.41a22.65,22.65,0,0,0-22.62,22.63,22.65,22.65,0,0,0,22.63,22.63,22.65,22.65,0,0,0,22.63-22.62A22.65,22.65,0,0,0-1000.27-11.41Zm7.13,31.94a0.61,0.61,0,0,1,.21.59,0.61,0.61,0,0,1-.42.46,7.73,7.73,0,0,1-2.1.27,7,7,0,0,1-4.08-1.24h0a1.63,1.63,0,0,0-.93-0.15h-0.19a10,10,0,0,1-10-10,10,10,0,0,1,10-10,10,10,0,0,1,10,10,9.92,9.92,0,0,1-4.24,8.17A9.59,9.59,0,0,0-993.13,20.53Z" transform="translate(1022.89 11.41)"/></svg>