<svg id="图层_1" data-name="图层 1" xmlns="http://www.w3.org/2000/svg" viewBox="0 0 89 89"><defs><style>.cls-1,.cls-2{fill:none;stroke:#47c1df;stroke-linecap:round;stroke-linejoin:round;}.cls-1{stroke-width:2.5px;}.cls-2{stroke-width:3px;}</style></defs><title>mai</title><line class="cls-1" x1="44.5" y1="60.04" x2="44.5" y2="64.66"/><path class="cls-1" d="M3755.3,2032.18c0,3.56-3.41,6.44-7.61,6.44h0c-4.21,0-7.61-2.89-7.61-6.44V2014c0-3.56,3.41-6.44,7.61-6.44h0c4.21,0,7.61,2.88,7.61,6.44v18.19Z" transform="translate(-3703.19 -1984.09)"/><path class="cls-1" d="M3762.51,2031c0,6.92-6.64,12.54-14.82,12.54h0c-8.19,0-14.82-5.61-14.82-12.54" transform="translate(-3703.19 -1984.09)"/><line class="cls-1" x1="36.82" y1="65.55" x2="52.18" y2="65.55"/><circle class="cls-2" cx="44.5" cy="44.5" r="43"/></svg>