<svg id="图层_1" data-name="图层 1" xmlns="http://www.w3.org/2000/svg" viewBox="0 0 89 89"><defs><style>.cls-1{fill:none;stroke-width:3px;}.cls-1,.cls-2,.cls-3{stroke:#47c1df;}.cls-1,.cls-3{stroke-linecap:round;stroke-linejoin:round;}.cls-2,.cls-3{fill:#47c1df;}.cls-2{stroke-miterlimit:10;}.cls-3{stroke-width:0.8px;}</style></defs><title>ved</title><circle class="cls-1" cx="44.5" cy="44.5" r="43"/><path class="cls-2" d="M3569.81,2125.17a2,2,0,1,1,1.4-.58A2,2,0,0,1,3569.81,2125.17Z" transform="translate(-3538.54 -2084.31)"/><path class="cls-3" d="M3566.59,2142.07a4.68,4.68,0,0,1-4.67-4.68v-17.17a4.68,4.68,0,0,1,4.67-4.67h19.83a4.68,4.68,0,0,1,4.67,4.67v1.53l8.34-4a4.07,4.07,0,0,1,1.75-.43,2.87,2.87,0,0,1,1.56.44,3.37,3.37,0,0,1,1.44,3V2137a3.38,3.38,0,0,1-1.44,3,2.87,2.87,0,0,1-1.55.43,4,4,0,0,1-1.76-.44l-8.34-4.06v1.52a4.68,4.68,0,0,1-4.67,4.67h-19.83Zm0-24.49a2.65,2.65,0,0,0-2.64,2.64v17.17a2.64,2.64,0,0,0,2.64,2.64h19.83a2.65,2.65,0,0,0,2.64-2.64v-17.17a2.65,2.65,0,0,0-2.64-2.64h-19.83Zm33.73,20.53a2.07,2.07,0,0,0,.86.23,0.9,0.9,0,0,0,.48-0.12,1.45,1.45,0,0,0,.49-1.25v-16.27a1.43,1.43,0,0,0-.49-1.26,0.9,0.9,0,0,0-.48-0.12,2,2,0,0,0-.86.23l-9.22,4.45v9.61Z" transform="translate(-3538.54 -2084.31)"/></svg>