<svg id="图层_1" data-name="图层 1" xmlns="http://www.w3.org/2000/svg" viewBox="0 0 45.25 45.25"><defs><style>.cls-1{fill:#fff;}</style></defs><title>work-b</title><path class="cls-1" d="M-992.59,6.31h-0.52A0.91,0.91,0,0,1-994,5.38V4.84a0.42,0.42,0,0,0-.41-0.43,0.42,0.42,0,0,0-.41.43V5.38a0.91,0.91,0,0,1-.89.93h-0.52a0.42,0.42,0,0,0-.41.43,0.42,0.42,0,0,0,.41.43h0.52a0.91,0.91,0,0,1,.89.93V8.64a0.42,0.42,0,0,0,.41.43A0.42,0.42,0,0,0-994,8.64V8.1a0.91,0.91,0,0,1,.89-0.93h0.52a0.42,0.42,0,0,0,.41-0.43A0.42,0.42,0,0,0-992.59,6.31Z" transform="translate(1022.89 11.41)"/><path class="cls-1" d="M-992.87,2a0.48,0.48,0,0,0-.47-0.49h-2.07a0.48,0.48,0,0,0-.47.49V2.69h3V2Z" transform="translate(1022.89 11.41)"/><path class="cls-1" d="M-1000.27-11.41a22.65,22.65,0,0,0-22.62,22.63,22.65,22.65,0,0,0,22.63,22.63,22.65,22.65,0,0,0,22.63-22.62A22.65,22.65,0,0,0-1000.27-11.41ZM-1001.16,19a1.23,1.23,0,0,1-1.22,1.22h-7.56a1.23,1.23,0,0,1-1.22-1.22V13.49a1.23,1.23,0,0,1,1.22-1.22h7.56a1.23,1.23,0,0,1,1.22,1.22V19Zm0-9.53a1.23,1.23,0,0,1-1.22,1.22h-7.56a1.23,1.23,0,0,1-1.22-1.22V4a1.23,1.23,0,0,1,1.22-1.22h7.56A1.23,1.23,0,0,1-1001.16,4V9.52ZM-989.48,19a1.23,1.23,0,0,1-1.22,1.22h-7.56A1.23,1.23,0,0,1-999.49,19V13.49a1.23,1.23,0,0,1,1.22-1.22h7.56a1.23,1.23,0,0,1,1.22,1.22V19Zm0.12-9.41a1.1,1.1,0,0,1-1.07,1.12h-7.94a1.1,1.1,0,0,1-1.07-1.12V3.81a1.1,1.1,0,0,1,1.07-1.12h1a0.91,0.91,0,0,0,.89-0.93,0.91,0.91,0,0,1,.89-0.93h2.44a0.91,0.91,0,0,1,.89.93,0.91,0.91,0,0,0,.89.93h0.94a1.1,1.1,0,0,1,1.07,1.12V9.64Z" transform="translate(1022.89 11.41)"/></svg>