<svg id="图层_1" data-name="图层 1" xmlns="http://www.w3.org/2000/svg" viewBox="0 0 45.25 45.25"><defs><style>.cls-1{fill:#fff;}</style></defs><title>work</title><path class="cls-1" d="M-1000.27,33.84a22.65,22.65,0,0,1-22.62-22.62,22.65,22.65,0,0,1,22.63-22.62,22.65,22.65,0,0,1,22.63,22.63A22.65,22.65,0,0,1-1000.27,33.84Zm0-44.25a21.65,21.65,0,0,0-21.62,21.63,21.65,21.65,0,0,0,21.63,21.63,21.65,21.65,0,0,0,21.63-21.62A21.65,21.65,0,0,0-1000.27-10.41Z" transform="translate(1022.89 11.41)"/><path id="_复合路径_" data-name="&lt;复合路径&gt;" class="cls-1" d="M-990.43,2.69h-0.94a0.91,0.91,0,0,1-.89-0.93h0a0.91,0.91,0,0,0-.89-0.93h-2.44a0.91,0.91,0,0,0-.89.93h0a0.91,0.91,0,0,1-.89.93h-1a1.1,1.1,0,0,0-1.07,1.12V9.64a1.1,1.1,0,0,0,1.07,1.12h7.94a1.1,1.1,0,0,0,1.07-1.12V3.81A1.1,1.1,0,0,0-990.43,2.69ZM-995.88,2a0.48,0.48,0,0,1,.47-0.49h2.07a0.48,0.48,0,0,1,.47.49V2.69h-3V2Zm3.29,5.22h-0.52a0.91,0.91,0,0,0-.89.93V8.64a0.42,0.42,0,0,1-.41.43,0.42,0.42,0,0,1-.41-0.43V8.1a0.91,0.91,0,0,0-.89-0.93h-0.52a0.42,0.42,0,0,1-.41-0.43,0.42,0.42,0,0,1,.41-0.43h0.52a0.91,0.91,0,0,0,.89-0.93V4.84a0.42,0.42,0,0,1,.41-0.43,0.42,0.42,0,0,1,.41.43V5.38a0.91,0.91,0,0,0,.89.93h0.52a0.42,0.42,0,0,1,.41.43A0.42,0.42,0,0,1-992.59,7.17Z" transform="translate(1022.89 11.41)"/><rect id="_矩形_" data-name="&lt;矩形&gt;" class="cls-1" x="11.72" y="14.15" width="10.01" height="8" rx="1.22" ry="1.22"/><rect id="_矩形_2" data-name="&lt;矩形&gt;" class="cls-1" x="11.72" y="23.69" width="10.01" height="8" rx="1.22" ry="1.22"/><rect id="_矩形_3" data-name="&lt;矩形&gt;" class="cls-1" x="23.4" y="23.69" width="10.01" height="8" rx="1.22" ry="1.22"/></svg>