<svg id="图层_1" data-name="图层 1" xmlns="http://www.w3.org/2000/svg" viewBox="0 0 45.25 45.25"><defs><style>.cls-1{fill:#fff;}</style></defs><title>xiumi-a</title><path class="cls-1" d="M-1039.77,29.76A22.65,22.65,0,0,1-1062.4,7.14a22.65,22.65,0,0,1,22.63-22.63,22.65,22.65,0,0,1,22.62,22.63A22.65,22.65,0,0,1-1039.77,29.76Zm0-44.25A21.65,21.65,0,0,0-1061.4,7.14a21.65,21.65,0,0,0,21.63,21.62,21.65,21.65,0,0,0,21.62-21.62A21.65,21.65,0,0,0-1039.77-14.49Z" transform="translate(1062.4 15.49)"/><g id="_编组_" data-name="&lt;编组&gt;"><path id="_复合路径_" data-name="&lt;复合路径&gt;" class="cls-1" d="M-1051.21.3l4.8,7.23a11.18,11.18,0,0,1,13.34,0l4.74-7.23S-1038.94-10.14-1051.21.3ZM-1037.36,1h-1.8v1.8a0.65,0.65,0,0,1-.65.65,0.65,0.65,0,0,1-.65-0.65V1h-1.8a0.65,0.65,0,0,1-.65-0.65,0.65,0.65,0,0,1,.65-0.65h1.8v-1.8a0.65,0.65,0,0,1,.65-0.65,0.65,0.65,0,0,1,.65.65v1.8h1.8a0.65,0.65,0,0,1,.65.65A0.65,0.65,0,0,1-1037.36,1Z" transform="translate(1062.4 15.49)"/><path id="_复合路径_2" data-name="&lt;复合路径&gt;" class="cls-1" d="M-1042.69,9.58a1.29,1.29,0,0,0-1.3,1.29,1.29,1.29,0,0,0,1.3,1.29,1.29,1.29,0,0,0,1.2-.82l-0.94-.47,0.94-.47A1.28,1.28,0,0,0-1042.69,9.58Zm11.9-.45c0-.2,0-0.41,0-0.61a10.91,10.91,0,0,0-.53-3.68l-0.8,1.22a10.48,10.48,0,0,1,.23,2.45V8.58a0.81,0.81,0,0,0-.85.67v0c0,0.1,0,.37-0.06.7l0,0a7.1,7.1,0,0,0-3.77-1.61,14.23,14.23,0,0,1-2.1-.56,8,8,0,0,1-3.18-2.33l-0.75.18a8.74,8.74,0,0,0,3.68,2.79,14.78,14.78,0,0,0,2.2.59c1.45,0.31,2.83.6,3.76,1.81l0,0V11a8.39,8.39,0,0,1-.1,1.31,7.48,7.48,0,0,1-5.67,3.44,1.26,1.26,0,0,0-1-.41,1,1,0,0,0-1.12.74,1,1,0,0,0,1.12.74,1.08,1.08,0,0,0,1.1-.62,8.7,8.7,0,0,0,2.27-.57,7.74,7.74,0,0,0,2.67-1.77c0.12-.12.24-0.25,0.35-0.38a6.46,6.46,0,0,1-6.41,4.46h0a6.58,6.58,0,0,1-6.81-6.95V10.59c0-.17,0-0.64,0-1.09a5.78,5.78,0,0,0,3.13-3.08,0.34,0.34,0,0,0-.15-0.42l-0.51.2a5.11,5.11,0,0,1-2.78,2.68,1.08,1.08,0,0,0-1-.3s0-.05,0-0.08a10.25,10.25,0,0,1,.27-2.65l-0.79-1.19a10.74,10.74,0,0,0-.58,3.84c0,0.26,0,.51,0,0.75a1.93,1.93,0,0,0-.51,2,2,2,0,0,0,1.29,1.39,2,2,0,0,0,1.06.3,7.23,7.23,0,0,0,7.3,5.69,7.22,7.22,0,0,0,7.29-5.7h0.07a2.05,2.05,0,0,0,1.29-.45,2,2,0,0,0,1-1.25A2,2,0,0,0-1030.79,9.13Zm-5.86.45a1.29,1.29,0,0,0-1.3,1.29,1.29,1.29,0,0,0,1.3,1.29,1.29,1.29,0,0,0,1.2-.82l-0.94-.47,0.94-.47A1.28,1.28,0,0,0-1036.65,9.59Z" transform="translate(1062.4 15.49)"/></g></svg>