<svg id="图层_1" data-name="图层 1" xmlns="http://www.w3.org/2000/svg" viewBox="0 0 45.25 45.25"><defs><style>.cls-1{fill:#fff;}</style></defs><title>xiumi-b</title><path class="cls-1" d="M-1042.27,1h1.8v1.8a0.65,0.65,0,0,0,.65.65,0.65,0.65,0,0,0,.65-0.65V1h1.8a0.65,0.65,0,0,0,.65-0.65,0.65,0.65,0,0,0-.65-0.65h-1.8v-1.8a0.65,0.65,0,0,0-.65-0.65,0.65,0.65,0,0,0-.65.65v1.8h-1.8a0.65,0.65,0,0,0-.65.65A0.65,0.65,0,0,0-1042.27,1Z" transform="translate(1062.4 15.49)"/><path class="cls-1" d="M-1039.77-15.49A22.65,22.65,0,0,0-1062.4,7.14a22.65,22.65,0,0,0,22.63,22.62,22.65,22.65,0,0,0,22.62-22.62A22.65,22.65,0,0,0-1039.77-15.49Zm-1.72,26.83a1.29,1.29,0,0,1-1.2.82,1.29,1.29,0,0,1-1.3-1.29,1.29,1.29,0,0,1,1.3-1.29,1.28,1.28,0,0,1,1.2.82l-0.94.47Zm-6-5.49a10.26,10.26,0,0,0-.27,2.65s0,0.06,0,.08a1.08,1.08,0,0,1,1,.3,5.11,5.11,0,0,0,2.78-2.68l0.51-.2a0.34,0.34,0,0,1,.15.42,5.78,5.78,0,0,1-3.13,3.08c0,0.45-.05.92,0,1.09V11a6.58,6.58,0,0,0,6.81,6.95h0a6.46,6.46,0,0,0,6.41-4.46c-0.11.13-.23,0.26-0.35,0.38a7.74,7.74,0,0,1-2.67,1.77,8.7,8.7,0,0,1-2.27.57,1.08,1.08,0,0,1-1.1.62,1,1,0,0,1-1.12-.74,1,1,0,0,1,1.12-.74,1.26,1.26,0,0,1,1,.41,7.48,7.48,0,0,0,5.67-3.44,8.4,8.4,0,0,0,.1-1.31V10.93l0,0c-0.94-1.21-2.31-1.5-3.76-1.81a14.78,14.78,0,0,1-2.2-.59,8.74,8.74,0,0,1-3.68-2.79l0.75-.18a8,8,0,0,0,3.18,2.33,14.23,14.23,0,0,0,2.1.56,7.1,7.1,0,0,1,3.77,1.61l0,0c0-.33,0-0.6.06-0.7v0a0.81,0.81,0,0,1,.85-0.67V8.52a10.48,10.48,0,0,0-.23-2.45l0.8-1.22a10.9,10.9,0,0,1,.53,3.68c0,0.21,0,.41,0,0.61a2,2,0,0,1,.65,2.09,2,2,0,0,1-1,1.25,2.05,2.05,0,0,1-1.29.45h-0.07a7.22,7.22,0,0,1-7.29,5.7,7.23,7.23,0,0,1-7.3-5.69,2,2,0,0,1-1.06-.3,2,2,0,0,1-1.29-1.39,1.93,1.93,0,0,1,.51-2c0-.24,0-0.49,0-0.75a10.75,10.75,0,0,1,.58-3.84l-2.9-4.37c12.27-10.43,22.88,0,22.88,0l-4.74,7.23a11.18,11.18,0,0,0-13.34,0L-1048,5.1Zm12.08,5.49a1.29,1.29,0,0,1-1.2.82,1.29,1.29,0,0,1-1.3-1.29,1.29,1.29,0,0,1,1.3-1.29,1.28,1.28,0,0,1,1.2.82l-0.94.47Z" transform="translate(1062.4 15.49)"/></svg>