<svg id="图层_1" data-name="图层 1" xmlns="http://www.w3.org/2000/svg" viewBox="0 0 45.25 45.25"><defs><style>.cls-1{fill:#fff;}</style></defs><title>xiuxi-a</title><path class="cls-1" d="M-1040,30.18a22.65,22.65,0,0,1-22.62-22.63A22.65,22.65,0,0,1-1040-15.07a22.65,22.65,0,0,1,22.62,22.62A22.65,22.65,0,0,1-1040,30.18Zm0-44.25a21.65,21.65,0,0,0-21.62,21.62A21.65,21.65,0,0,0-1040,29.18a21.65,21.65,0,0,0,21.62-21.63A21.65,21.65,0,0,0-1040-14.07Z" transform="translate(1062.66 15.07)"/><path id="_复合路径_" data-name="&lt;复合路径&gt;" class="cls-1" d="M-1045.9,12h0.56l1,0c6.54,0,12.66-4,12.66-4l0.43-.3a9.6,9.6,0,0,0,1.07-.92,6.65,6.65,0,0,0,.1-1.12c0-3.32-2.34-6-5.23-6a5,5,0,0,0-4.06,2.23l0,0.07,0-.07a5,5,0,0,0-4.06-2.24c-2.88,0-5.22,2.7-5.23,6a8.28,8.28,0,0,0,1.52,4.5A14.26,14.26,0,0,0-1045.9,12Zm4.67,2.74c-0.54.09-1.09,0.16-1.62,0.21,0.69,0.57,1.25,1,1.5,1.16l0.15,0.11a3.18,3.18,0,0,0,1.73.52h0.18a3.37,3.37,0,0,0,1.45-.39l0,0a25.83,25.83,0,0,0,4.48-3.91,29.4,29.4,0,0,1-2.84,1.1A12.31,12.31,0,0,1-1041.23,14.71Zm11.19-2.35a2.32,2.32,0,0,1-2.23,2.2c2.24,0.14,2.23,2.94,2.23,2.94a3,3,0,0,1,2-2.94A2.28,2.28,0,0,1-1030,12.36Zm2.5-7.62a2.85,2.85,0,0,0-.09-0.33,2.38,2.38,0,0,0-.12-0.28l-0.13-.22-0.13-.17a2.22,2.22,0,0,0-.19-0.21l-0.07-.07,0.06,0.08a2.16,2.16,0,0,1,.17.23,2.18,2.18,0,0,1,.33,1,2.48,2.48,0,0,1-.07.73,3.67,3.67,0,0,1-.34.81,6.8,6.8,0,0,1-1.39,1.6,14.51,14.51,0,0,1-2.08,1.47,23.6,23.6,0,0,1-2.55,1.28,30.53,30.53,0,0,1-2.87,1.06c-0.5.16-1,.3-1.51,0.43l-0.55.14h0c-1.24.29-2.38,0.5-3.41,0.63l-0.67.08a23.42,23.42,0,0,1-3,.12,13.85,13.85,0,0,1-2.79-.35,3.91,3.91,0,0,1-2.29-1.34c-1.47-2.28,1.65-4.4,1.79-4.49a0.42,0.42,0,0,0,.12-0.58,0.42,0.42,0,0,0-.58-0.12c-1.38.92-3.57,3.27-2,5.66,0.73,1.13,2.77,2.1,6.34,2.1a27.38,27.38,0,0,0,4.85-.48l0.93-.18,0.75-.17,0.23,0,0.07,0,0.54-.14c0.52-.14,1-0.3,1.55-0.46a26.35,26.35,0,0,0,2.93-1.15,20.26,20.26,0,0,0,2.58-1.42c0.4-.25.77-0.52,1.11-0.8s0.67-.56,1-0.85a8.6,8.6,0,0,0,.79-0.89,5.91,5.91,0,0,0,.56-0.92,3.67,3.67,0,0,0,.29-0.91A2.68,2.68,0,0,0-1027.54,4.74Z" transform="translate(1062.66 15.07)"/></svg>