<svg id="图层_1" data-name="图层 1" xmlns="http://www.w3.org/2000/svg" viewBox="0 0 45.25 45.25"><defs><style>.cls-1{fill:#fff;}</style></defs><title>xiuxi-b</title><path class="cls-1" d="M-1040-15.07a22.65,22.65,0,0,0-22.62,22.62A22.65,22.65,0,0,0-1040,30.18a22.65,22.65,0,0,0,22.62-22.63A22.65,22.65,0,0,0-1040-15.07Zm-3.51,14.69a5,5,0,0,1,4.06,2.24l0,0.07,0-.07a5,5,0,0,1,4.06-2.23c2.89,0,5.23,2.7,5.23,6a6.64,6.64,0,0,1-.1,1.12,9.6,9.6,0,0,1-1.07.92l-0.43.3s-6.11,3.95-12.66,4l-1,0h-0.56a14.28,14.28,0,0,1-1.35-1.85,8.28,8.28,0,0,1-1.52-4.5C-1048.77,2.31-1046.43-.39-1043.54-0.39Zm5.75,16.67,0,0a3.37,3.37,0,0,1-1.45.39h-0.18a3.18,3.18,0,0,1-1.73-.52l-0.15-.11c-0.25-.18-0.81-0.59-1.5-1.16,0.53-.05,1.07-0.12,1.62-0.21a12.31,12.31,0,0,0,5.07-1.23,29.38,29.38,0,0,0,2.84-1.1A25.83,25.83,0,0,1-1037.8,16.29Zm7.75,1.21s0-2.8-2.23-2.94a2.32,2.32,0,0,0,2.23-2.2,2.28,2.28,0,0,0,2,2.19A3,3,0,0,0-1030,17.49Zm2.5-11.94a3.67,3.67,0,0,1-.29.91,5.91,5.91,0,0,1-.56.92,8.59,8.59,0,0,1-.79.89c-0.3.29-.62,0.57-1,0.85s-0.72.54-1.11,0.8a20.27,20.27,0,0,1-2.58,1.42,26.36,26.36,0,0,1-2.93,1.15c-0.51.16-1,.32-1.55,0.46l-0.54.14-0.07,0-0.23,0-0.75.17-0.93.18a27.39,27.39,0,0,1-4.85.48c-3.58,0-5.61-1-6.34-2.1-1.54-2.38.65-4.74,2-5.66a0.42,0.42,0,0,1,.58.12,0.42,0.42,0,0,1-.12.58c-0.14.09-3.27,2.22-1.79,4.49a3.91,3.91,0,0,0,2.29,1.34,13.85,13.85,0,0,0,2.79.35,23.43,23.43,0,0,0,3-.12l0.67-.08c1-.14,2.16-0.35,3.41-0.63h0l0.55-.14c0.51-.13,1-0.28,1.51-0.43a30.51,30.51,0,0,0,2.87-1.06,23.61,23.61,0,0,0,2.55-1.28,14.51,14.51,0,0,0,2.08-1.47,6.8,6.8,0,0,0,1.39-1.6,3.67,3.67,0,0,0,.34-0.81,2.48,2.48,0,0,0,.08-0.73,2.19,2.19,0,0,0-.33-1,2.17,2.17,0,0,0-.17-0.23l-0.06-.08,0.07,0.07a2.19,2.19,0,0,1,.19.21l0.13,0.17,0.13,0.22a2.4,2.4,0,0,1,.12.28,2.83,2.83,0,0,1,.09.33A2.68,2.68,0,0,1-1027.55,5.55Z" transform="translate(1062.66 15.07)"/></svg>