<?xml version="1.0" encoding="utf-8"?>
<!-- Generator: Adobe Illustrator 19.2.0, SVG Export Plug-In . SVG Version: 6.00 Build 0)  -->
<svg version="1.1" id="图层_1" xmlns="http://www.w3.org/2000/svg" xmlns:xlink="http://www.w3.org/1999/xlink" x="0px" y="0px"
	 viewBox="0 0 768.3 141.2" style="enable-background:new 0 0 768.3 141.2;" xml:space="preserve">
<style type="text/css">
	.st0{fill:#32BBDC;}
	.st1{fill:#002C4B;}
</style>
<path class="st0" d="M649.3,93.3c-0.4-0.9-0.7-1.8-1-2.8c-1.3-4.1-1.9-8.2-1.9-12.5c0-6,1.3-12,3.7-17.8c2.5-5.8,5.7-10.3,9.7-13.6
	c3.9-3.3,8.5-5.6,13.6-6.9c2.4-0.7,4.9-1.1,7.4-1.5c-6.4,6.5-14.9,16.9-19.3,31.1C656.8,74.4,652.1,83.8,649.3,93.3 M709.1,84.8
	l15.4,10.5c-13.6,24.4-47.6,21-61.7,13.2c-0.5-0.3-0.9-0.5-1.4-0.8c0.2-12.8,7.6-29.7,14-40h26.9c0-0.8,0.1-1.5,0.1-2.1
	c0-2.5-0.5-4.6-1.4-6.3c-3.5-6.8-17.3-6.3-22.2-2.4c-1.1,0.9-2,1.9-2.8,3c-0.7,1.1-1.3,2.2-1.6,3.3c-0.2,0.7-0.4,1.6-0.7,2.6
	c-3.1,0.9-6.8,2-9.7,2.8c8.9-10.2,20.5-22.8,29.4-30.8c24,1.3,38.5,14.6,33.6,40.6l-54.5,0.1c-0.1,0.7-0.1,1.4-0.1,2.1
	C672.5,98.3,700,100.4,709.1,84.8z"/>
<path class="st0" d="M737.4,42.9c-0.5-20.2-18.3-27.6-35.6-17.6c-32.5,18.8-71.2,79.8-49.8,100c8,7.5,30.6,1.6,40.6-8.3
	c-12.2,8.6-25.6,9.3-31.5,5.8c-7-4.2-4.7-21.6,3.8-38.6c9.3-18.6,39.5-56.7,55.6-56.4C728.8,27.8,735.6,33,737.4,42.9"/>
<path class="st0" d="M520.3,89c-0.3,1.9-0.8,5.3-1.7,10.3l-1.9,11.3c-7.6,1.8-15.1,2.7-22.4,2.7c-5.3,0-9.9-0.5-13.9-1.5
	c-4.7-1.2-9-3.4-12.7-6.5c-3.8-3.2-6.7-7-8.4-11.3c-2.1-5.1-3.1-10.8-3.1-17.1c0-5.8,1-11.4,3.1-16.8c2-5.4,5.1-9.8,9-13.3
	c4-3.5,8.4-5.9,13.3-7c4.9-1.2,10.2-1.8,16.1-1.8c3.4,0,6.9,0.2,10.4,0.5c3.5,0.4,7.8,1.1,13,2.3l0.1,1.6c0.2,1.7,0.3,3.4,0.3,5.2
	c0.1,1.8,0.2,4.5,0.5,8.3l0.5,6.3c-7-2.3-13.1-3.5-18.5-3.5c-3.8,0-7.2,0.7-10.1,2.1c-2.9,1.4-5,3.5-6.4,6.2
	c-1.4,2.7-2.1,5.8-2.1,9.4c0,3.6,0.6,6.6,1.9,9.1c1.2,2.4,3.2,4.3,5.9,5.5c2.7,1.2,5.7,1.8,9,1.8c1.6,0,3.6-0.2,5.9-0.5
	c2.3-0.3,4.2-0.7,5.9-1.1C515.6,90.6,517.7,89.9,520.3,89"/>
<path class="st0" d="M526.6,60.1c0.9-4.6,1.5-7.8,1.7-9.6c0.3-1.8,0.6-4.5,1.2-8.3c14-2.9,26.1-4.4,36.1-4.4c5.7,0,11,0.6,15.8,1.9
	c4.8,1.2,8.5,3.2,11.2,6c2.7,2.8,4,6.7,4,11.9c0,2.6-0.3,8.5-1.1,17.7c-0.5,6.6-1,14.6-1.3,24.1c0,1.1-0.1,2.2-0.1,3.4
	c-0.1,2.8-0.2,5.7-0.3,8.7c-4.8-0.1-9.5-0.1-14.3-0.1c-4.6,0-9.4,0-14.6,0.1c0.7-5.2,1.5-15.8,2.3-31.9c-1.8,0.8-3.3,1.4-4.4,1.8
	c-1,0.4-2.9,0.9-5.5,1.7c-2.6,0.8-4.7,1.4-6.2,1.9c-1.5,0.5-2.8,1.2-3.9,2c-1.1,0.8-1.9,1.6-2.3,2.5c-0.5,0.8-0.7,1.8-0.7,2.8
	c0,1.6,0.6,2.9,2,4.1c1.3,1.1,3.4,1.7,6.3,1.7c1,0,2.1-0.1,3.3-0.2c1.2-0.2,2.8-0.6,4.8-1.2c-1.4,3.6-3.1,8.9-5,15.8
	c-4.2,0.6-8.1,1-11.9,1c-6,0-11-0.8-15.1-2.4c-4-1.6-7.1-4.2-9.3-7.8c-2.2-3.6-3.2-7.2-3.2-10.8c0-2.2,0.4-4.4,1.2-6.5
	c0.8-2.1,2.1-4.2,3.8-6.2c1.7-2,3.7-3.7,6-5.2c2.3-1.4,5.4-2.8,9.4-4c4-1.3,9-2.5,15.1-3.6c2.5-0.5,4.9-1,7-1.5
	c2.1-0.5,3.6-1,4.5-1.4c0.9-0.4,1.6-0.9,2.2-1.4c0.6-0.5,1-1.1,1.2-1.7c0.2-0.6,0.3-1.2,0.3-1.8c0-1.8-0.8-3.1-2.3-4.1
	c-1.5-1-3.8-1.4-6.8-1.4C549.3,53.3,538.9,55.6,526.6,60.1"/>
<path class="st0" d="M598.6,111.4l2.3-31.2l0.7-17.9c0-3.2,0.1-6.5,0.1-9.9c0-3.4,0-7.7-0.1-12.7c5.9,0.1,10.6,0.1,14,0.1
	c4,0,8.7,0,14-0.1l-0.3,7.9c6.2-8.2,19.3-10.3,29.5-9.6c-2.8,9.6-3.4,13.2-5.4,21.4c-15.7,0-23.3,6.1-24.3,19.9
	c-0.4,5.4-1.2,16.1-1.2,23c0,2.4,0.1,5.5,0.3,9.1c-4.7-0.1-9.5-0.1-14.2-0.1C609,111.2,604,111.3,598.6,111.4"/>
<path class="st1" d="M167.9,89c-0.3,1.9-0.8,5.3-1.7,10.3l-1.9,11.3c-7.6,1.8-15.1,2.7-22.4,2.7c-5.3,0-9.9-0.5-13.9-1.5
	c-4.7-1.2-9-3.4-12.7-6.5c-3.8-3.2-6.7-7-8.4-11.3c-2.1-5.1-3.1-10.8-3.1-17.1c0-5.8,1-11.4,3.1-16.8c2-5.4,5.1-9.8,9-13.3
	c4-3.5,8.4-5.9,13.3-7c4.9-1.2,10.2-1.8,16.1-1.8c3.4,0,6.9,0.2,10.4,0.5c3.5,0.4,7.8,1.1,13,2.3l0.2,1.6c0.1,1.7,0.2,3.4,0.3,5.2
	c0.1,1.8,0.2,4.5,0.5,8.3L170,62c-7-2.3-13.1-3.5-18.5-3.5c-3.8,0-7.2,0.7-10.1,2.1c-2.9,1.4-5,3.5-6.4,6.2
	c-1.4,2.7-2.1,5.8-2.1,9.4c0,3.6,0.6,6.6,1.9,9.1c1.2,2.4,3.2,4.3,5.9,5.5c2.7,1.2,5.7,1.8,9,1.8c1.6,0,3.6-0.2,5.9-0.5
	c2.3-0.3,4.2-0.7,5.9-1.1C163.2,90.6,165.3,89.9,167.9,89"/>
<path class="st1" d="M170.4,111.4l2-33.9l1.2-26.5l0.1-11.4c5.4,0.1,10.1,0.1,14.1,0.1c4.6,0,9.1,0,13.5-0.1l-0.5,9.4
	c1.5-1.9,2.8-3.3,3.8-4.3c1-1,2.3-2,3.8-2.9c1.5-0.9,3.1-1.7,4.7-2.2c1.6-0.5,3.4-1,5.4-1.3c2-0.3,4.1-0.5,6.3-0.5
	c2.5,0,4.8,0.2,6.9,0.6c2.1,0.4,3.9,0.9,5.4,1.5c1.5,0.6,2.8,1.3,4,2.1c1.1,0.8,2.1,1.7,2.9,2.7c0.9,1,1.8,2.5,3,4.4
	c2.1-3,4.4-5.3,6.8-6.8c2.4-1.5,5.1-2.7,8.1-3.4c3-0.7,6.2-1.1,9.4-1.1c4.2,0,8.2,0.6,12,1.8c3.7,1.2,6.8,3.2,9.2,6.1
	c2.4,2.9,3.6,6.6,3.6,11.2c0,2.2-0.2,5.4-0.5,9.8c-0.3,4.4-0.7,11.8-1.3,22.5c-0.5,10.6-0.8,18-0.9,22.3c-4.5-0.1-8.8-0.1-13-0.1
	c-5.1,0-10.4,0-16,0.1c0.5-6,1-13.4,1.5-22.4c0.5-9,0.8-15.2,0.8-18.7c0-3-0.4-5.3-1.1-6.8c-0.7-1.5-1.7-2.5-2.8-3.1
	s-2.4-0.8-3.8-0.8c-1.4,0-2.7,0.3-3.8,0.8c-1.2,0.6-2.2,1.5-3.1,2.6c-1.2,1.6-2.1,3.5-2.8,5.9c-0.6,1.8-1,4.7-1.4,8.4
	c-0.3,3.8-0.6,8.9-0.8,15.2l-0.6,18.8c-5.2-0.1-9.9-0.1-14.1-0.1c-4.3,0-9.3,0-15.1,0.1c0.4-4.2,0.9-11.2,1.5-21
	c0.6-9.8,0.9-16.4,0.9-19.7c0-2.8-0.3-4.9-0.9-6.3c-0.6-1.4-1.4-2.5-2.4-3.4c-1-0.8-2.4-1.3-4.2-1.3c-1.9,0-3.5,0.5-5,1.6
	c-1.4,1.1-2.6,2.6-3.6,4.7c-1,2-1.7,4.8-2.1,8.3c-0.4,3.5-0.8,8.9-1.1,16.2c-0.3,7.3-0.6,14.3-0.7,20.9c-5.9-0.1-10.7-0.1-14.3-0.1
	C181.5,111.2,176.4,111.3,170.4,111.4"/>
<path class="st1" d="M322.2,67.4h24.1c0-0.8,0.1-1.5,0.1-2c0-2.4-0.4-4.5-1.3-6.3c-0.9-1.7-2.2-3-3.9-3.8c-1.7-0.8-3.6-1.2-5.7-1.2
	c-1.4,0-2.9,0.2-4.2,0.7c-1.4,0.4-2.6,1.1-3.7,2c-1.1,0.9-2,1.9-2.7,3c-0.7,1.1-1.3,2.2-1.6,3.3C322.9,64.1,322.5,65.5,322.2,67.4
	 M367.1,90.2c-0.6,2.8-1.8,9.6-3.6,20.4c-5.7,1.1-10.4,1.8-14.2,2.1c-3.9,0.4-7.7,0.5-11.7,0.5c-5.8,0-11.1-0.4-16-1.2
	c-4.9-0.8-9-2.2-12.6-4.1c-3.5-2-6.5-4.4-8.9-7.3c-2.4-2.9-4.2-6.4-5.4-10.4c-1.2-4-1.9-8.2-1.9-12.4c0-6,1.2-11.9,3.7-17.6
	c2.5-5.7,5.7-10.2,9.6-13.5c3.9-3.2,8.4-5.5,13.5-6.9c5.1-1.4,10.3-2,15.7-2c5.6,0,10.8,0.6,15.9,1.9c5,1.2,9.3,3.4,12.8,6.5
	c3.5,3.1,6,6.6,7.5,10.5c1.5,3.9,2.2,8.1,2.2,12.6c0,2.7-0.3,5.6-0.9,8.9l-51.2,0.1c0,0.7-0.1,1.4-0.1,2c0,5,1.9,8.8,5.6,11.2
	c3.7,2.4,8.3,3.6,13.7,3.6c3.2,0,6.9-0.4,11-1.1C356,93.1,361.1,91.9,367.1,90.2z"/>
<path class="st1" d="M425.9,57.2c-2.6-0.6-5-0.8-7.3-0.8c-4.7,0-8.7,0.9-12.1,2.6c-3.3,1.8-5.9,4.5-7.6,8.2c-1.8,3.7-2.7,7.4-2.7,11
	c0,2.7,0.5,5.2,1.5,7.3c1,2.2,2.5,3.9,4.6,5.2c2.1,1.3,4.4,1.9,6.9,1.9c2.7,0,5.1-0.7,7.3-2.2c2.2-1.4,4-3.6,5.4-6.4
	c1.4-2.8,2.3-6.2,2.9-10C425.4,70.1,425.7,64.5,425.9,57.2 M452,111.4c-5.2-0.1-9.5-0.1-13-0.1c-3.9,0-8.6,0-14.1,0.1l0.4-8.9
	c-1.9,1.8-3.6,3.2-5,4.3c-1.4,1.1-3.2,2.2-5.4,3.2c-2.2,1-4.6,1.8-7.2,2.4c-2.6,0.6-5.2,0.8-7.9,0.8c-4.7,0-9-0.8-13.1-2.5
	c-4.1-1.6-7.5-4-10.4-7c-2.9-3-5-6.6-6.4-10.7c-1.4-4.2-2.1-8.4-2.1-12.9c0-6.3,1.3-12.5,3.9-18.5c2.6-6,6-10.8,10.1-14.3
	c4.2-3.5,8.9-5.9,14.1-7.3c5.2-1.4,10.9-2.1,17-2.1c4,0,8.8,0.4,14.2,1.1c0.4-5.6,0.6-13.4,0.8-23.4c6,0.1,10.9,0.1,14.7,0.1
	c4.9,0,9.9,0,14.9-0.1c-1.4,13.9-2.7,30.9-3.7,50.9S452,101.5,452,111.4z"/>
<path class="st1" d="M36.6,59.5c0.9-4.7,1.5-7.9,1.8-9.7c0.3-1.8,0.7-4.6,1.2-8.3c14.2-3,26.3-4.5,36.5-4.5c5.8,0,11.1,0.6,15.9,1.9
	c4.8,1.2,8.6,3.3,11.3,6.1c2.7,2.8,4.1,6.8,4.1,12c0,2.7-0.4,8.6-1.1,17.9c-0.5,6.6-1,14.8-1.3,24.3c0,1.1-0.1,2.2-0.1,3.4
	c-0.1,2.8-0.2,5.7-0.3,8.8c-4.8-0.1-9.6-0.1-14.4-0.1c-4.6,0-9.5,0-14.8,0.1c0.7-5.2,1.5-16,2.3-32.2c-1.9,0.8-3.3,1.5-4.4,1.8
	c-1.1,0.4-2.9,0.9-5.6,1.7c-2.7,0.8-4.8,1.4-6.2,1.9c-1.5,0.5-2.8,1.2-3.9,2c-1.1,0.8-1.9,1.6-2.4,2.5c-0.5,0.8-0.7,1.8-0.7,2.8
	c0,1.6,0.7,3,2,4.1c1.3,1.1,3.4,1.7,6.3,1.7c1,0,2.1-0.1,3.3-0.2c1.2-0.2,2.8-0.6,4.9-1.3c-1.4,3.7-3.1,9-5.1,16
	c-4.2,0.7-8.2,1-12,1c-6.1,0-11.2-0.8-15.2-2.4c-4.1-1.6-7.2-4.3-9.4-7.9c-2.2-3.6-3.3-7.3-3.3-10.9c0-2.2,0.4-4.4,1.2-6.5
	c0.8-2.1,2.1-4.2,3.8-6.3c1.7-2,3.8-3.8,6.1-5.2c2.3-1.4,5.5-2.8,9.5-4.1c4-1.3,9.1-2.5,15.3-3.6c2.5-0.5,4.9-1,7-1.5
	c2.1-0.5,3.7-1,4.6-1.4c0.9-0.4,1.7-0.9,2.2-1.4c0.6-0.5,1-1.1,1.2-1.7c0.2-0.6,0.4-1.2,0.4-1.9c0-1.8-0.8-3.2-2.4-4.1
	c-1.6-1-3.9-1.5-6.9-1.5C59.5,52.6,49.1,54.9,36.6,59.5"/>
</svg>
