<svg id="图层_1" data-name="图层 1" xmlns="http://www.w3.org/2000/svg" xmlns:xlink="http://www.w3.org/1999/xlink" viewBox="0 0 276.13 120.33"><defs><style>.cls-1{fill:#fff;}.cls-2{fill:#00b9ee;}.cls-3{fill:#fabe00;}.cls-4{fill:url(#未命名的渐变_90);}.cls-5{fill:url(#未命名的渐变_73);}</style><linearGradient id="未命名的渐变_90" x1="2042.42" y1="494.43" x2="2049.09" y2="473.03" gradientUnits="userSpaceOnUse"><stop offset="0" stop-color="#fabe00"/><stop offset="0.99" stop-color="#f39800"/></linearGradient><linearGradient id="未命名的渐变_73" x1="1965.14" y1="454.7" x2="1960.24" y2="478.25" gradientUnits="userSpaceOnUse"><stop offset="0" stop-color="#00b9ee"/><stop offset="1" stop-color="#0079ae"/></linearGradient></defs><title>yixiu-b</title><path class="cls-1" d="M2107.34,498a11.79,11.79,0,0,0-3.43-2,10.65,10.65,0,0,0-3.79-.68,8.43,8.43,0,0,0-6.27,2.44,9.41,9.41,0,0,0-.06,12.52,7.89,7.89,0,0,0,5.93,2.44,10.9,10.9,0,0,0,4-.73,12.6,12.6,0,0,0,3.62-2.2V514a11.31,11.31,0,0,1-3.35,1.63,13.74,13.74,0,0,1-3.93.54,13.89,13.89,0,0,1-5-.87,11.62,11.62,0,0,1-4-2.57,11.42,11.42,0,0,1-2.64-3.92,12.59,12.59,0,0,1-.92-4.81,12.47,12.47,0,0,1,.92-4.79,11.55,11.55,0,0,1,2.67-3.94,11.76,11.76,0,0,1,4-2.59,13.4,13.4,0,0,1,4.89-.88,13,13,0,0,1,3.95.59,13.88,13.88,0,0,1,3.64,1.8Z" transform="translate(-1947.72 -410.52)"/><path class="cls-1" d="M2115.16,500.54V509a4.44,4.44,0,0,0,.91,3.14,5.11,5.11,0,0,0,5.94,0,4.43,4.43,0,0,0,.92-3.14v-8.46h3.48V508q0,4.31-1.75,6.26t-5.59,1.95q-3.9,0-5.65-1.93t-1.75-6.27v-7.43h3.48Z" transform="translate(-1947.72 -410.52)"/><path class="cls-1" d="M2163.73,508.56h-12.16a5,5,0,0,0,1.27,3.29,4,4,0,0,0,3,1.18,5.24,5.24,0,0,0,2.81-.7,5.77,5.77,0,0,0,2-2.25l2.94,1.62a8.82,8.82,0,0,1-3.18,3.37,8.64,8.64,0,0,1-4.45,1.11,7.79,7.79,0,0,1-5.83-2.2,8,8,0,0,1-2.17-5.88,7.93,7.93,0,0,1,2.24-5.81,8.67,8.67,0,0,1,11.48-.2,7.91,7.91,0,0,1,2.05,5.82v0.65Zm-3.61-2.31a3.62,3.62,0,0,0-1.25-2.46,4.4,4.4,0,0,0-2.86-.85,4.32,4.32,0,0,0-2.76.82,4.41,4.41,0,0,0-1.46,2.49h8.33Z" transform="translate(-1947.72 -410.52)"/><path class="cls-1" d="M2167.65,515.56v-23.2h5.15a34,34,0,0,1,7.07.5,9.58,9.58,0,0,1,3.59,1.67,9.71,9.71,0,0,1,3.09,3.95,13.64,13.64,0,0,1,1.05,5.5,13.46,13.46,0,0,1-1.05,5.47,9.86,9.86,0,0,1-3.09,3.94,9.63,9.63,0,0,1-3.5,1.67,27.17,27.17,0,0,1-6.12.5h-6.18Zm3.82-3.41h3.21a16.75,16.75,0,0,0,4-.35,5.82,5.82,0,0,0,2.3-1.17,7,7,0,0,0,2-2.8,11.7,11.7,0,0,0,0-7.78,7,7,0,0,0-2-2.8,6,6,0,0,0-2.38-1.17,19.58,19.58,0,0,0-4.34-.35h-2.76v16.42Z" transform="translate(-1947.72 -410.52)"/><path class="cls-1" d="M2190.56,508.06a7.76,7.76,0,0,1,.63-3.11,8,8,0,0,1,1.82-2.61,8.2,8.2,0,0,1,2.7-1.73,8.9,8.9,0,0,1,6.43,0,8.21,8.21,0,0,1,2.72,1.78,7.94,7.94,0,0,1,1.83,2.61,7.69,7.69,0,0,1,.63,3.06,7.92,7.92,0,0,1-.62,3.12,7.61,7.61,0,0,1-1.8,2.58,8.72,8.72,0,0,1-2.78,1.8,8.66,8.66,0,0,1-6.39,0,8.23,8.23,0,0,1-2.71-1.77,8.13,8.13,0,0,1-1.83-2.63A7.78,7.78,0,0,1,2190.56,508.06Zm13.08,0a5,5,0,0,0-1.36-3.54,4.56,4.56,0,0,0-6.67,0,5.26,5.26,0,0,0,0,7.08,4.55,4.55,0,0,0,6.66,0A5,5,0,0,0,2203.64,508.1Z" transform="translate(-1947.72 -410.52)"/><path class="cls-1" d="M2212.05,515.56h-3.85l5.76-8.08-4.93-6.94h3.84l2.13,3.11c0.23,0.32.42,0.62,0.59,0.92a10,10,0,0,1,.47.9q0.19-.38.44-0.8l0.63-1.05,2.12-3.07h3.8l-4.93,7,5.71,8H2220l-2.83-3.95-0.13-.19a10.11,10.11,0,0,1-1.06-1.87c-0.21.4-.42,0.77-0.62,1.12s-0.4.66-.6,1Z" transform="translate(-1947.72 -410.52)"/><path class="cls-1" d="M2096.8,475.23q-5.62.14-8.1-2.59-2.09-2.3-2-6.63V419.16H2145v5.53h-49.53v41.07q-0.27,4.74,4.9,4.48h45.45v5h-49Zm47.35-7.64q-16.33-3.68-21.5-11.32-4.63,7.11-23.13,11.32v-4.74q14.42-4.21,17.14-12.11h-18.23v-5.27h19.32v-8.42H2109q-3,3.42-10.34,5v-4.21q6.26-2.63,7.62-10.79h7.89q-0.82,2.64-1.63,4.74h28.3v5.27h-14.69v5.79a10.84,10.84,0,0,1-.27,2.63h17.69v5.27h-16.33q4.9,8.43,16.87,11.85v5Z" transform="translate(-1947.72 -410.52)"/><path class="cls-1" d="M2162,421.79v53.48a7.36,7.36,0,0,1,2.88-2.3c1.62-.73,1.75-0.63,1.75-0.63h4.63q8.71,0.26,8.44-7.63V421.79H2162Zm8.43,45.07h-2.18V427.79h5.17V463.7Q2173.69,467.12,2170.43,466.86Z" transform="translate(-1947.72 -410.52)"/><path class="cls-1" d="M2181.05,440v-5q6.53-5,8.16-17.9h7.62a62.66,62.66,0,0,1-4.35,13.43v46.86h-7.08V437.85A16.47,16.47,0,0,1,2181.05,440Z" transform="translate(-1947.72 -410.52)"/><path class="cls-1" d="M2222.42,468.91a67,67,0,0,1-10.61-20v28.7h-7.08v-29a59.61,59.61,0,0,1-10.89,20.54V461.8a109.25,109.25,0,0,0,9.8-29.49h-8.71v-5.27h9.8v-9.74h7.08v9.74h10.07v5.27h-9a111.06,111.06,0,0,0,9.52,29.49v7.11Z" transform="translate(-1947.72 -410.52)"/><path class="cls-2" d="M2144.78,505.23l-0.44,0h-5.49v6.64a1,1,0,0,0,1,1.2c0.3,0,2.55,0,3.3-.06v3.19h-4.5c-2.58,0-3.48-1.34-3.48-4v-7h-4.92l-0.36,0v-3.68h5.29v-4a7.14,7.14,0,0,0-.05-0.86h3.79a6.13,6.13,0,0,0-.06.81v4h5.94v3.68Z" transform="translate(-1947.72 -410.52)"/><path class="cls-2" d="M2020.42,473.05l0.13-.61C2020.41,473,2020.36,473.28,2020.42,473.05Z" transform="translate(-1947.72 -410.52)"/><path class="cls-3" d="M2061.57,453.47a6.89,6.89,0,0,0-5.38-2.57h-52.67c-10.14,0-22.38,6.47-25.1,18.43l-13.08,52.94a6.92,6.92,0,0,0,6.71,8.58h0a6.93,6.93,0,0,0,5.14-2.29c3.46-3.85,14.58-13.83,24.36-13.83H2029c10.54,0,22.69-5.89,26.06-19l0.06-.26,7.81-36.13A6.89,6.89,0,0,0,2061.57,453.47ZM2029,500.89h-23.6a37.36,37.36,0,0,0-5.93.33,21.49,21.49,0,0,0-4.89,1.61l-11.72,5.65,9-36c1.08-4.83,6.76-7.71,11.63-7.71h44.1l-6,27.58C2040,498.65,2033.81,500.89,2029,500.89Z" transform="translate(-1947.72 -410.52)"/><path class="cls-4" d="M2048.32,464.73h-9.7s5.48-.41,7.27,3.88a4.73,4.73,0,0,1,.36,2.56l-4.92,23.12,13.39,2.57,4.18-19.34c1.52-7-5.1-10.72-8.85-12.19C2049.35,465.06,2048.75,464.86,2048.32,464.73Z" transform="translate(-1947.72 -410.52)"/><path class="cls-2" d="M2042,411.33a6.91,6.91,0,0,0-8.38,1.49c-3.46,3.85-14.58,13.83-24.36,13.83H1981.8c-10.54,0-22.69,5.89-26.06,19l-0.06.26-7.81,36.13a6.92,6.92,0,0,0,6.76,8.38h18.56l3.42-13.84h-13.41l6-27.58c1.67-6.33,7.85-8.57,12.63-8.57h27.86c5,0,7.74-.51,10-1.38a73.93,73.93,0,0,0,9.17-4.59l-2.77,12.19-4.33,20.17c-0.49,1.47-3.26,8.79-10.32,9.76h-20.57l-3.47,13.84h26.92a17.74,17.74,0,0,0,17.69-14l13.49-57.32A6.91,6.91,0,0,0,2042,411.33Z" transform="translate(-1947.72 -410.52)"/><path class="cls-5" d="M1972.05,476.67c-6-1.06-6.89-5.86-6.95-8.44l4.33-20-14.17-.31-3.94,18s3.79,9.1,11.91,10.8h8.82Z" transform="translate(-1947.72 -410.52)"/></svg>